<?xml version="1.0" encoding="utf-8"?>
<!-- Generator: Adobe Illustrator 23.0.0, SVG Export Plug-In . SVG Version: 6.00 Build 0)  -->
<svg version="1.1" id="Camada_1" xmlns="http://www.w3.org/2000/svg" xmlns:xlink="http://www.w3.org/1999/xlink" x="0px" y="0px"
	 viewBox="0 0 400 400" style="enable-background:new 0 0 400 400;" xml:space="preserve">
<style type="text/css">
	.st0{fill:#FFFFFF;}
	.st1{stroke:#FFFFFF;stroke-width:14;stroke-miterlimit:10;}
</style>
<path class="st0" d="M341.42,58.58C303.65,20.8,253.42,0,200,0C146.58,0,96.36,20.8,58.58,58.58S0,146.58,0,200
	c0,53.43,20.8,103.65,58.58,141.43C96.36,379.2,146.58,400,200,400c53.43,0,103.65-20.8,141.42-58.57
	C379.2,303.66,400,253.43,400,200C400,146.58,379.2,96.36,341.42,58.58z M332.58,332.59C297.17,368,250.09,387.5,200,387.5
	c-50.08,0-97.17-19.5-132.58-54.91C32,297.18,12.5,250.09,12.5,200c0-50.08,19.5-97.16,54.92-132.58C102.84,32,149.92,12.5,200,12.5
	c50.08,0,97.17,19.5,132.58,54.92C368,102.83,387.5,149.92,387.5,200C387.5,250.09,368,297.18,332.58,332.59z"/>
<path class="st0" d="M335.97,89.82c-2.18-2.68-6.11-3.09-8.79-0.92c-2.68,2.18-3.09,6.11-0.92,8.79
	c23.37,28.8,36.24,65.14,36.24,102.31c0,43.41-16.9,84.22-47.59,114.91C284.22,345.6,243.41,362.5,200,362.5
	c-40.05,0-78.52-14.69-108.33-41.37c-2.57-2.3-6.52-2.08-8.82,0.49c-2.3,2.57-2.08,6.52,0.49,8.83C115.44,359.18,156.87,375,200,375
	c46.75,0,90.69-18.2,123.75-51.25C356.8,290.7,375,246.75,375,200C375,159.97,361.14,120.84,335.97,89.82z"/>
<path class="st0" d="M37.5,200c0-89.6,72.9-162.5,162.5-162.5c40.05,0,78.52,14.69,108.33,41.37c2.57,2.3,6.52,2.08,8.82-0.49
	c2.3-2.57,2.08-6.52-0.49-8.83C284.56,40.83,243.13,25,200,25c-46.74,0-90.69,18.2-123.74,51.26C43.2,109.31,25,153.26,25,200
	c0,40.03,13.86,79.16,39.03,110.19c1.24,1.52,3.04,2.31,4.86,2.31c1.38,0,2.78-0.46,3.93-1.4c2.68-2.18,3.09-6.11,0.92-8.79
	C50.37,273.51,37.5,237.17,37.5,200z"/>
<path class="st0" d="M291.52,121.21H122.33c-14.57,0-26.38,7.83-26.38,17.49v112.22c0,9.66,11.81,17.5,26.38,17.5h169.19
	c14.57,0,26.38-7.83,26.38-17.49V138.71C317.89,129.04,306.09,121.21,291.52,121.21z M303.9,250.92c0,4.53-5.54,8.21-12.38,8.21
	H122.33c-6.84,0-12.38-3.68-12.38-8.21V138.71c0-4.53,5.54-8.21,12.38-8.21h169.19c6.84,0,12.38,3.68,12.38,8.21V250.92z"/>
<line class="st1" x1="111.31" y1="133.68" x2="214.12" y2="218.95"/>
<line class="st1" x1="304.38" y1="133.16" x2="210.53" y2="211.58"/>
</svg>
