<?xml version="1.0" encoding="utf-8"?>
<!-- Generator: Adobe Illustrator 23.0.0, SVG Export Plug-In . SVG Version: 6.00 Build 0)  -->
<svg version="1.1" id="Layer_1" xmlns="http://www.w3.org/2000/svg" xmlns:xlink="http://www.w3.org/1999/xlink" x="0px" y="0px"
	 viewBox="0 0 409.6 409.6" style="enable-background:new 0 0 409.6 409.6;" xml:space="preserve">
<style type="text/css">
	svg {
  display: block;
  margin: auto;
}

path {
  stroke: white;
  stroke-width: 2px;
  stroke-dasharray: 853;
  animation: 6s draw forwards;
}

@keyframes draw {
  0% {
    fill-opacity: 0;
    stroke-dashoffset: 853;
  }
  25% {
    fill-opacity: 0;
    stroke: white;
  }
  75% {
    fill-opacity: 1;
    stroke-dashoffset: 0;
    stroke: none;
  }
}
	.st0{fill:#FFFFFF;}
</style>
<g>
	<g>
		<path class="st0" d="M349.62,59.99C310.94,21.31,259.5,0,204.8,0S98.67,21.31,59.99,59.99C21.31,98.67,0,150.1,0,204.8
			c0,54.71,21.31,106.14,59.99,144.82C98.67,388.3,150.1,409.6,204.8,409.6c54.71,0,106.14-21.3,144.82-59.98
			c38.68-38.68,59.98-90.11,59.98-144.82C409.6,150.1,388.3,98.67,349.62,59.99L349.62,59.99z M340.57,340.57
			c-36.26,36.26-84.48,56.23-135.76,56.23c-51.29,0-99.5-19.97-135.76-56.23C32.77,304.31,12.8,256.09,12.8,204.8
			c0-51.28,19.97-99.5,56.24-135.76S153.52,12.8,204.8,12.8c51.28,0,99.5,19.97,135.76,56.24c36.26,36.26,56.24,84.48,56.24,135.76
			C396.8,256.09,376.83,304.31,340.57,340.57L340.57,340.57z"/>
		<path class="st0" d="M344.03,91.98c-2.23-2.75-6.26-3.17-9-0.94c-2.75,2.23-3.16,6.26-0.94,9c23.93,29.5,37.11,66.7,37.11,104.76
			c0,44.45-17.31,86.24-48.73,117.67S249.25,371.2,204.8,371.2c-41.01,0-80.41-15.04-110.93-42.36c-2.64-2.36-6.68-2.13-9.04,0.5
			c-2.36,2.63-2.13,6.68,0.5,9.04C118.21,367.8,160.64,384,204.8,384c47.87,0,92.87-18.64,126.71-52.48
			C365.36,297.68,384,252.67,384,204.8C384,163.81,369.8,123.75,344.03,91.98L344.03,91.98z"/>
		<path class="st0" d="M38.4,204.8c0-91.75,74.65-166.4,166.4-166.4c41.01,0,80.4,15.05,110.93,42.37c2.63,2.36,6.68,2.13,9.04-0.5
			c2.36-2.63,2.13-6.68-0.5-9.04C291.39,41.8,248.96,25.6,204.8,25.6c-47.86,0-92.86,18.64-126.71,52.49
			C44.24,111.94,25.6,156.94,25.6,204.8c0,40.99,14.19,81.06,39.97,112.83c1.27,1.56,3.11,2.37,4.97,2.37
			c1.42,0,2.84-0.47,4.03-1.43c2.74-2.23,3.16-6.26,0.94-9C51.58,280.07,38.4,242.86,38.4,204.8L38.4,204.8z"/>
	</g>
	<g>
		<path class="st0" d="M258.59,102.13H151.41c-27.18,0-49.29,22.11-49.29,49.29v107.18c0,27.18,22.11,49.29,49.29,49.29h107.18
			c27.18,0,49.28-22.11,49.28-49.29V151.41C307.87,124.24,285.77,102.13,258.59,102.13z M294.9,258.59
			c0,20.02-16.29,36.31-36.31,36.31H151.41c-20.02,0-36.31-16.29-36.31-36.31V151.41c0-20.02,16.29-36.31,36.31-36.31h107.18
			c20.02,0,36.31,16.29,36.31,36.31V258.59z"/>
		<path class="st0" d="M262.5,139.73c-4.36,0-7.9,3.54-7.9,7.9s3.55,7.9,7.9,7.9c4.36,0,7.9-3.54,7.9-7.9
			C270.4,143.27,266.86,139.73,262.5,139.73z"/>
		<path class="st0" d="M205,154.57c-27.81,0-50.43,22.62-50.43,50.43c0,27.81,22.62,50.43,50.43,50.43
			c27.81,0,50.43-22.62,50.43-50.43C255.43,177.19,232.81,154.57,205,154.57z M205,242.45c-20.65,0-37.45-16.8-37.45-37.46
			c0-20.65,16.8-37.45,37.45-37.45c20.65,0,37.45,16.8,37.45,37.45C242.45,225.65,225.65,242.45,205,242.45z"/>
	</g>
</g>
</svg>
