<?xml version="1.0" encoding="utf-8"?>
<!-- Generator: Adobe Illustrator 23.0.0, SVG Export Plug-In . SVG Version: 6.00 Build 0)  -->
<svg version="1.1" id="Capa_1" xmlns="http://www.w3.org/2000/svg" xmlns:xlink="http://www.w3.org/1999/xlink" x="0px" y="0px"
	 viewBox="0 0 512 512" style="enable-background:new 0 0 512 512;" xml:space="preserve">
<style type="text/css">
	svg {
  display: block;
  margin: auto;
}

path {
  stroke: white;
  stroke-width: 2px;
  stroke-dasharray: 853;
  animation: 6s draw forwards;
}

@keyframes draw {
  0% {
    fill-opacity: 0;
    stroke-dashoffset: 853;
  }
  25% {
    fill-opacity: 0;
    stroke: white;
  }
  75% {
    fill-opacity: 1;
    stroke-dashoffset: 0;
    stroke: none;
  }
}
	.st0{fill:#FFFFFF;}
</style>
<g>
	<path class="st0" d="M437.02,74.98C388.67,26.63,324.38,0,256,0C187.62,0,123.34,26.63,74.98,74.98S0,187.62,0,256
		c0,68.39,26.63,132.68,74.98,181.03C123.33,485.38,187.62,512,256,512c68.39,0,132.67-26.63,181.02-74.97
		C485.37,388.68,512,324.39,512,256C512,187.62,485.37,123.34,437.02,74.98z M425.71,425.71C380.38,471.04,320.11,496,256,496
		c-64.11,0-124.37-24.96-169.7-70.29C40.97,380.39,16,320.11,16,256c0-64.1,24.97-124.37,70.3-169.7C131.63,40.97,191.9,16,256,16
		c64.11,0,124.38,24.97,169.71,70.3C471.04,131.63,496,191.9,496,256C496,320.11,471.04,380.39,425.71,425.71z"/>
	<path class="st0" d="M430.04,114.97c-2.78-3.43-7.82-3.96-11.25-1.17c-3.43,2.78-3.96,7.82-1.17,11.25
		C447.53,161.92,464,208.43,464,256c0,55.57-21.64,107.8-60.92,147.09S311.56,464,256,464c-51.26,0-100.51-18.81-138.66-52.96
		c-3.29-2.95-8.35-2.67-11.3,0.63s-2.67,8.35,0.63,11.3C147.76,459.74,200.8,480,256,480c59.84,0,116.09-23.3,158.39-65.6
		C456.7,372.1,480,315.84,480,256C480,204.77,462.26,154.68,430.04,114.97z"/>
	<path class="st0" d="M48,256c0-114.69,93.31-208,208-208c51.26,0,100.5,18.81,138.66,52.96c3.29,2.95,8.35,2.67,11.3-0.63
		c2.95-3.29,2.67-8.35-0.63-11.3C364.24,52.26,311.2,32,256,32c-59.83,0-116.08,23.3-158.39,65.61C55.3,139.92,32,196.17,32,256
		c0,51.24,17.74,101.33,49.96,141.04c1.58,1.95,3.89,2.96,6.22,2.96c1.77,0,3.55-0.58,5.04-1.79c3.43-2.78,3.96-7.82,1.17-11.25
		C64.47,350.09,48,303.58,48,256z"/>
	<path class="st0" d="M325.68,373.04h49.58c4.42,0,8-3.58,8-8v-85.51c0-24.01-6.2-42.9-18.44-56.16
		c-11.44-12.4-27.57-18.95-46.65-18.95c-16.6,0-28.25,5.06-36.68,11.64v-0.14c0-4.42-3.58-8-8-8h-49.56c-2.18,0-4.27,0.89-5.78,2.47
		c-1.51,1.58-2.31,3.71-2.21,5.89c0.62,13.62,0,147.37-0.01,148.72c-0.01,2.13,0.83,4.17,2.33,5.68s3.54,2.36,5.67,2.36h49.56
		c4.42,0,8-3.58,8-8v-83.28c0-4.34,0.35-7.38,1.05-9.09c1.59-3.95,6.54-13.15,18.02-13.15c4.68,0,17.12,0,17.12,25.73v79.79
		C317.68,369.46,321.27,373.04,325.68,373.04z M300.56,243.52c-14.73,0-27.01,8.66-32.83,23.11c-1.55,3.75-2.24,8.42-2.24,15.13
		v75.28h-33.53c0.11-25.86,0.42-105.46,0.12-133.12h33.4v13.12c0,3.54,2.33,6.67,5.73,7.67c3.4,1.01,7.05-0.35,8.98-3.32
		c6.72-10.37,16.49-20.97,37.96-20.97c31.2,0,49.09,21.54,49.09,59.11v77.51h-33.58v-71.79c0-12.14-2.43-21.86-7.22-28.89
		C320.75,247.96,311.79,243.52,300.56,243.52z"/>
	<path class="st0" d="M207.75,169.6c-0.41-19.79-15.1-33.6-35.72-33.6c-20.88,0-36.03,14.2-36.03,33.77s14.88,33.77,35.38,33.77
		h0.33c20.88,0,36.04-14.2,36.04-33.77C207.75,169.72,207.75,169.66,207.75,169.6z M171.71,187.54h-0.33
		c-11.59,0-19.38-7.14-19.38-17.77S160.05,152,172.03,152c11.91,0,19.46,6.84,19.72,17.85
		C191.71,180.44,183.66,187.54,171.71,187.54z"/>
	<path class="st0" d="M146.92,207.92c-4.42,0-8,3.58-8,8v149.12c0,4.42,3.58,8,8,8h49.59c4.42,0,8-3.58,8-8V215.92
		c0-4.42-3.58-8-8-8H146.92z M188.51,357.04h-33.59V223.92h33.59V357.04z"/>
</g>
</svg>
