<svg class="whatsapp" version="1.1" id="Camada_1" xmlns="http://www.w3.org/2000/svg" xmlns:xlink="http://www.w3.org/1999/xlink" x="0px" y="0px"
	 viewBox="0 0 400 400" style="enable-background:new 0 0 400 400;" xml:space="preserve">
<style type="text/css">

	svg {
  display: block;
  margin: auto;
}

path {
  stroke: white;
  stroke-width: 2px;
  stroke-dasharray: 853;
  animation: 6s draw forwards;
}

@keyframes draw {
  0% {
    fill-opacity: 0;
    stroke-dashoffset: 853;
  }
  25% {
    fill-opacity: 0;
    stroke: white;
  }
  75% {
    fill-opacity: 1;
    stroke-dashoffset: 0;
    stroke: none;
  }
}
	.st0{fill:#FFFFFF;}	
</style>
<script type="text/js">
var draw = document.querySelector('svg path');

var tam = draw.getTotalLength();

console.log(tam);
	</script>
<g>
	<g>
		<path id="WhatsApp" class="st0" d="M304.21,197.34c0,55.51-45.34,100.5-101.28,100.5c-17.76,0-34.44-4.54-48.96-12.51
			l-56.07,17.82l18.28-53.92c-9.22-15.14-14.53-32.91-14.53-51.89c0-55.51,45.35-100.5,101.29-100.5
			C258.87,96.84,304.21,141.84,304.21,197.34z M202.93,112.85c-46.96,0-85.15,37.9-85.15,84.5c0,18.49,6.03,35.61,16.22,49.54
			l-10.64,31.38l32.72-10.4c13.44,8.83,29.55,13.98,46.85,13.98c46.95,0,85.15-37.9,85.15-84.49S249.88,112.85,202.93,112.85z
			 M254.07,220.49c-0.63-1.02-2.28-1.64-4.76-2.87c-2.48-1.23-14.69-7.19-16.96-8.01c-2.28-0.82-3.94-1.23-5.59,1.23
			c-1.65,2.47-6.41,8.01-7.86,9.66c-1.45,1.65-2.9,1.85-5.38,0.62c-2.48-1.23-10.48-3.84-19.96-12.23
			c-7.38-6.53-12.36-14.59-13.81-17.06c-1.45-2.46-0.15-3.8,1.09-5.02c1.12-1.1,2.48-2.88,3.73-4.31c1.24-1.44,1.66-2.46,2.48-4.11
			c0.83-1.64,0.42-3.08-0.21-4.32c-0.62-1.23-5.59-13.35-7.66-18.29c-2.07-4.93-4.13-4.11-5.58-4.11c-1.45,0-3.1-0.21-4.76-0.21
			c-1.66,0-4.35,0.62-6.62,3.08c-2.27,2.47-8.69,8.43-8.69,20.55c0,12.12,8.89,23.83,10.14,25.48c1.24,1.64,17.17,27.33,42.41,37.19
			c25.24,9.86,25.24,6.57,29.79,6.16c4.55-0.41,14.69-5.96,16.76-11.71C254.69,226.45,254.69,221.52,254.07,220.49z"/>
	</g>
	<path class="st0" d="M341.42,58.58C303.65,20.8,253.42,0,200,0C146.58,0,96.36,20.8,58.58,58.58S0,146.58,0,200
		c0,53.43,20.8,103.65,58.58,141.43C96.36,379.2,146.58,400,200,400c53.43,0,103.65-20.8,141.42-58.57
		C379.2,303.66,400,253.43,400,200C400,146.58,379.2,96.36,341.42,58.58z M332.58,332.59C297.17,368,250.09,387.5,200,387.5
		c-50.08,0-97.17-19.5-132.58-54.91C32,297.18,12.5,250.09,12.5,200c0-50.08,19.5-97.16,54.92-132.58
		C102.84,32,149.92,12.5,200,12.5c50.08,0,97.17,19.5,132.58,54.92C368,102.83,387.5,149.92,387.5,200
		C387.5,250.09,368,297.18,332.58,332.59z"/>
	<path class="st0" d="M335.97,89.82c-2.18-2.68-6.11-3.09-8.79-0.92c-2.68,2.18-3.09,6.11-0.92,8.79
		c23.37,28.8,36.24,65.14,36.24,102.31c0,43.41-16.9,84.22-47.59,114.91C284.22,345.6,243.41,362.5,200,362.5
		c-40.05,0-78.52-14.69-108.33-41.37c-2.57-2.3-6.52-2.08-8.82,0.49c-2.3,2.57-2.08,6.52,0.49,8.83
		C115.44,359.18,156.87,375,200,375c46.75,0,90.69-18.2,123.75-51.25C356.8,290.7,375,246.75,375,200
		C375,159.97,361.14,120.84,335.97,89.82z"/>
	<path class="st0" d="M37.5,200c0-89.6,72.9-162.5,162.5-162.5c40.05,0,78.52,14.69,108.33,41.37c2.57,2.3,6.52,2.08,8.82-0.49
		c2.3-2.57,2.08-6.52-0.49-8.83C284.56,40.83,243.13,25,200,25c-46.74,0-90.69,18.2-123.74,51.26C43.2,109.31,25,153.26,25,200
		c0,40.03,13.86,79.16,39.03,110.19c1.24,1.52,3.04,2.31,4.86,2.31c1.38,0,2.78-0.46,3.93-1.4c2.68-2.18,3.09-6.11,0.92-8.79
		C50.37,273.51,37.5,237.17,37.5,200z"/>
</g>
</svg>
